HIERARCHY
ROOT Hips
{
	OFFSET 0.000000 0.000000 0.000000
	CHANNELS 6 Xposition Yposition Zposition Zrotation Yrotation Xrotation 
	JOINT LHipJoint
	{
		OFFSET 0.000000 0.000000 0.000000
		CHANNELS 3 Zrotation Yrotation Xrotation
		JOINT LeftUpLeg
		{
			OFFSET 1.363060 -1.794630 0.839290
			CHANNELS 3 Zrotation Yrotation Xrotation
			JOINT LeftLeg
			{
				OFFSET 2.448110 -6.726130 0.000000
				CHANNELS 3 Zrotation Yrotation Xrotation
				JOINT LeftFoot
				{
					OFFSET 2.562200 -7.039590 0.000000
					CHANNELS 3 Zrotation Yrotation Xrotation
					JOINT LeftToeBase
					{
						OFFSET 0.157640 -0.433110 2.322550
						CHANNELS 3 Zrotation Yrotation Xrotation
						End Site
						{
							OFFSET 0.000000 0.000000 0.000000
						}
					}
				}
			}
		}
	}
	JOINT RHipJoint
	{
		OFFSET 0.000000 0.000000 0.000000
		CHANNELS 3 Zrotation Yrotation Xrotation
		JOINT RightUpLeg
		{
			OFFSET -1.305520 -1.794630 0.839290
			CHANNELS 3 Zrotation Yrotation Xrotation
			JOINT RightLeg
			{
				OFFSET -2.542530 -6.985550 0.000000
				CHANNELS 3 Zrotation Yrotation Xrotation
				JOINT RightFoot
				{
					OFFSET -2.568260 -7.056230 0.000000
					CHANNELS 3 Zrotation Yrotation Xrotation
					JOINT RightToeBase
					{
						OFFSET -0.164730 -0.452590 2.363150
						CHANNELS 3 Zrotation Yrotation Xrotation
						End Site
						{
							OFFSET 0.000000 0.000000 0.000000
						}
					}
				}
			}
		}
	}
}
MOTION
Frames: 27
Frame Time: 0.008333
5.688086 17.289941 0.172421 155.666552 -84.546624 -132.844629 -9.684509 0.680405 3.886547 -8.559472 -4.201562 -42.697800 -2.047209 0.788965 32.094401 0.687537 1.421087 -9.330339 -0.054400 0.000000 -30.584600 8.696336 -1.858508 5.187446 8.349092 7.761387 -30.728321 3.043954 0.490827 12.628767 0.450361 4.466509 -5.239026 0.085300 -0.000000 -57.630800
5.582701 17.261331 0.168827 156.117469 -84.212067 -132.715067 -9.529485 0.623112 4.059872 -8.545209 -5.011707 -43.562736 -2.119574 0.721774 31.586742 0.651199 1.034929 -9.677999 -0.065901 0.000000 -31.660400 8.765998 -1.800082 5.189446 8.033760 8.168248 -32.280218 2.914653 0.222373 15.302371 0.369241 4.381642 -6.403808 0.061601 0.000000 -58.322200
5.478513 17.225697 0.165952 156.494397 -83.893225 -132.494384 -9.381838 0.566639 4.234326 -8.507003 -5.843918 -44.558428 -2.168980 0.685283 31.467538 0.626854 0.700125 -10.112485 -0.080600 -0.000000 -32.539800 8.840298 -1.734311 5.190536 7.725114 8.559708 -33.998639 2.767841 -0.072336 18.216582 0.283910 4.259781 -7.520462 0.040400 0.000000 -59.153800
5.375249 17.182037 0.163666 156.748998 -83.598589 -132.137477 -9.242956 0.513243 4.409682 -8.455048 -6.690840 -45.694267 -2.192769 0.683946 31.756560 0.612474 0.411266 -10.604281 -0.096500 -0.000000 -33.224700 8.922061 -1.659995 5.190611 7.424919 8.916114 -35.865754 2.602966 -0.387898 21.342607 0.196674 4.107703 -8.578463 0.022899 0.000000 -60.094300
5.273062 17.129243 0.161931 156.868808 -83.333435 -131.642985 -9.115553 0.463654 4.581405 -8.400665 -7.536165 -46.968646 -2.188945 0.721905 32.468468 0.604816 0.157843 -11.125541 -0.111900 0.000001 -33.737600 9.012145 -1.575112 5.187844 7.136990 9.224495 -37.853109 2.420709 -0.718406 24.653178 0.109627 3.934952 -9.582318 0.009500 0.000001 -61.092900
5.171058 17.066213 0.160523 156.788198 -83.107612 -130.930523 -8.998969 0.420333 4.758967 -8.350042 -8.392158 -48.407028 -2.154439 0.800276 33.603459 0.601892 -0.060155 -11.640339 -0.125200 0.000000 -34.115400 9.112364 -1.479901 5.194453 6.850501 9.491833 -39.964310 2.219503 -1.056489 28.118153 0.021263 3.731554 -10.538275 0.000300 -0.000000 -62.106300
5.069661 16.991854 0.159595 156.543211 -82.919720 -130.053298 -8.897155 0.380770 4.932184 -8.313187 -9.233309 -49.985856 -2.088427 0.919991 35.157357 0.600257 -0.255081 -12.136053 -0.135400 0.000000 -34.401500 9.220802 -1.371751 5.204638 6.570730 9.712610 -42.154645 2.002950 -1.396617 31.713678 -0.065741 3.517104 -11.472729 -0.004600 -0.000001 -63.063500
4.968386 16.905161 0.159143 156.113458 -82.772543 -128.983889 -8.810237 0.343774 5.105858 -8.290911 -10.065470 -51.709617 -1.989048 1.078155 37.108704 0.599080 -0.424607 -12.598855 -0.142500 0.000001 -34.640100 9.336257 -1.250678 5.226114 6.289537 9.899153 -44.414122 1.772492 -1.732620 35.410242 -0.151851 3.292059 -12.405483 -0.005400 0.000000 -63.922900
4.867138 16.805360 0.159281 155.508617 -82.663870 -127.734878 -8.738867 0.305930 5.278117 -8.282322 -10.885101 -53.558396 -1.856029 1.269713 39.423292 0.598382 -0.566280 -13.031642 -0.146800 -0.000000 -34.871800 9.456588 -1.116397 5.259098 6.004424 10.058588 -46.712414 1.531851 -2.059698 39.176287 -0.235855 3.067790 -13.361005 -0.002300 -0.000000 -64.663700
4.764666 16.692064 0.160017 154.729071 -82.595462 -126.285734 -8.682684 0.265909 5.462472 -8.269839 -11.710372 -55.543267 -1.688599 1.486875 42.050199 0.600110 -0.668569 -13.436029 -0.149700 0.000000 -35.133499 9.577391 -0.972626 5.317246 5.707990 10.215269 -49.050357 1.282866 -2.372231 42.969700 -0.319568 2.837170 -14.349836 0.005500 -0.000000 -65.226100
4.661423 16.565277 0.161615 153.815208 -82.560061 -124.691604 -8.641689 0.218157 5.650464 -8.247138 -12.530287 -57.616693 -1.490318 1.721539 44.932016 0.606431 -0.725922 -13.841125 -0.153300 -0.000000 -35.460900 9.695566 -0.819781 5.392184 5.404504 10.370504 -51.377581 1.031514 -2.668077 46.751243 -0.400618 2.619242 -15.394825 0.017501 0.000000 -65.642700
4.556555 16.425519 0.164136 152.800257 -82.555767 -122.975297 -8.615134 0.160529 5.848288 -8.193733 -13.352068 -59.761875 -1.265000 1.964438 47.998672 0.620554 -0.727783 -14.271263 -0.159800 0.000000 -35.889300 9.806329 -0.662589 5.488687 5.095228 10.540922 -53.673833 0.781571 -2.944150 50.471842 -0.480306 2.412055 -16.504618 0.034100 -0.000000 -65.910700
4.449668 16.273950 0.167720 151.727673 -82.579775 -121.180458 -8.602095 0.090927 6.057670 -8.091030 -14.175056 -61.949971 -1.018830 2.207176 51.175968 0.645430 -0.667566 -14.757814 -0.172100 -0.000000 -36.452000 9.905192 -0.505638 5.607079 4.784805 10.738763 -55.909115 0.537415 -3.198507 54.081896 -0.560249 2.213970 -17.687838 0.056400 0.000000 -66.027300
4.340338 16.112442 0.172339 150.645557 -82.629401 -119.358158 -8.601538 0.008656 6.277914 -7.923818 -14.993874 -64.141473 -0.759724 2.442203 54.385770 0.683711 -0.541349 -15.333673 -0.193200 0.000000 -37.179000 9.988386 -0.354031 5.745327 4.481128 10.973305 -58.046487 0.303663 -3.429407 57.529136 -0.643349 2.017859 -18.950118 0.086500 0.000000 -66.031300
4.228490 15.943342 0.177880 149.592454 -82.702231 -117.557127 -8.611263 -0.085944 6.504787 -7.685220 -15.799184 -66.289224 -0.497004 2.663611 57.553537 0.737595 -0.349000 -16.033443 -0.226800 0.000000 -38.088700 10.054248 -0.211946 5.897883 4.192763 11.247379 -60.044612 0.085407 -3.636002 60.767009 -0.733491 1.814105 -20.301109 0.127800 -0.000001 -65.955699
4.112686 15.769688 0.184101 148.627077 -82.799268 -115.827126 -8.631079 -0.188836 6.747285 -7.358816 -16.587312 -68.376660 -0.238637 2.866430 60.604111 0.808463 -0.093456 -16.875549 -0.276900 -0.000000 -39.158200 10.098148 -0.087183 6.073854 3.926649 11.582155 -61.890068 -0.114030 -3.815045 63.747489 -0.838182 1.576188 -21.742983 0.188300 0.000000 -65.697300
3.993909 15.595067 0.190565 147.743282 -82.915358 -114.198233 -8.656379 -0.297668 6.989076 -6.967371 -17.340690 -70.318483 0.003887 3.047152 63.471378 0.898109 0.221343 -17.891755 -0.349400 0.000000 -40.349400 10.124416 0.019715 6.255105 3.693343 11.957734 -63.514688 -0.288346 -3.967014 66.433560 -0.962086 1.292344 -23.286262 0.275400 -0.000000 -65.381100
3.871536 15.423458 0.196710 146.943616 -83.048152 -112.685659 -8.684251 -0.406350 7.229060 -6.526363 -18.053068 -72.065701 0.221455 3.202730 66.094199 1.008051 0.590893 -19.094165 -0.450500 0.000000 -41.559800 10.134853 0.104962 6.439749 3.499818 12.371442 -64.885092 -0.433406 -4.090314 68.791729 -1.112376 0.938891 -24.933909 0.401300 0.000000 -64.971700
3.745393 15.259159 0.201916 146.196416 -83.192810 -111.281074 -8.710629 -0.508130 7.461415 -6.067542 -18.718878 -73.554485 0.404922 3.330735 68.419729 1.140001 1.011093 -20.487837 -0.588000 -0.000001 -42.650900 10.134446 0.166927 6.620327 3.352409 12.806904 -65.957716 -0.545070 -4.184400 70.796347 -1.294703 0.498425 -26.685902 0.578800 0.000000 -64.447700
3.615375 15.106652 0.205542 145.445345 -83.343862 -109.954690 -8.731212 -0.595806 7.680190 -5.630451 -19.336389 -74.721748 0.546394 3.429276 70.404693 1.295484 1.478007 -22.064719 -0.769600 0.000000 -43.463400 10.129458 0.205008 6.788724 3.256870 13.241171 -66.692375 -0.620123 -4.249447 72.428536 -1.512605 -0.039641 -28.533492 0.820800 -0.000000 -63.780000
3.481354 14.970503 0.207028 144.605532 -83.494253 -108.649604 -8.741234 -0.661362 7.879448 -5.262689 -19.908124 -75.502837 0.639443 3.496464 72.011895 1.475391 1.987973 -23.799754 -1.002500 0.000000 -43.847700 10.128084 0.219479 6.936021 3.216108 13.642249 -67.050567 -0.656558 -4.286325 73.673760 -1.765780 -0.674807 -30.453378 1.136400 -0.000000 -62.960701
3.342971 14.855095 0.206026 143.601663 -83.638651 -107.312577 -8.737725 -0.697770 8.054767 -5.006387 -20.435396 -75.848299 0.680316 3.531176 73.213860 1.678597 2.533503 -25.649633 -1.290800 -0.000000 -43.709000 10.136954 0.210615 7.054610 3.234070 13.977976 -67.005743 -0.653574 -4.296249 74.522343 -2.049323 -1.392755 -32.407715 1.528100 0.000000 -61.950900
3.199827 14.764601 0.202415 142.359450 -83.772180 -105.888944 -8.718609 -0.698183 8.202833 -4.900245 -20.917568 -75.715564 0.667691 3.532319 73.986002 1.901028 3.102695 -27.549755 -1.632600 -0.000000 -43.037000 10.162502 0.178747 7.137595 3.311530 14.212276 -66.538156 -0.611781 -4.280381 74.963933 -2.352227 -2.164351 -34.334526 1.986499 -0.000000 -60.776200
3.051359 14.702781 0.196346 140.826410 -83.892077 -104.339095 -8.683929 -0.657463 8.322054 -4.968852 -21.348119 -75.080855 0.602918 3.499600 74.309513 2.134593 3.674885 -29.420833 -2.016900 0.000000 -41.881300 10.208453 0.124101 7.179561 3.447447 14.311567 -65.641288 -0.532557 -4.239468 74.988870 -2.657392 -2.942814 -36.154276 2.486500 -0.000000 -59.453101
2.896791 14.672896 0.188264 138.994078 -83.999375 -102.657977 -8.636793 -0.572181 8.413124 -5.218779 -21.711088 -73.937999 0.489947 3.432970 74.166727 2.366262 4.219056 -31.165898 -2.420900 -0.000000 -40.403700 10.274644 0.045738 7.178168 3.639025 14.249178 -64.321707 -0.418421 -4.172820 74.583397 -2.942525 -3.669856 -37.762565 2.986500 -0.000001 -58.099300
2.735408 14.677651 0.178921 136.876567 -84.098588 -100.859078 -8.582569 -0.441520 8.478247 -5.636169 -21.982986 -72.299310 0.334581 3.332862 73.542219 2.578582 4.693496 -32.679439 -2.809000 0.000000 -38.806700 10.356984 -0.057856 7.133307 3.880874 14.006277 -62.597391 -0.272553 -4.078546 73.730868 -3.181593 -4.276443 -39.039638 3.428801 0.000000 -56.865800
2.566340 14.719057 0.169166 134.489028 -84.196713 -98.949186 -8.527739 -0.266435 8.520983 -6.190378 -22.137703 -70.190168 0.143781 3.199369 72.420076 2.751107 5.049609 -33.850909 -3.135300 -0.000001 -37.307800 10.449064 -0.188585 7.046914 4.162273 13.570055 -60.493583 -0.098793 -3.953607 72.411257 -3.347198 -4.689019 -39.857839 3.746600 0.000000 -55.928800
